<?xml version="1.0" encoding="UTF-8"?>
<svg xmlns="http://www.w3.org/2000/svg" width="1024" height="1280" viewBox="0 0 1024 1280" role="img" aria-label="Карточка города BISHKEK">
<style>
text{font-family:Arial,'Segoe UI',sans-serif;fill:#12191b}.title{font-size:118px;font-weight:900;letter-spacing:-6px}.country{font-size:43px;font-weight:800;fill:#ba2626}.heading{font-size:25px;font-weight:900}.value{font-size:57px;font-weight:900;letter-spacing:-2px}.small{font-size:18px}.legend{font-size:17px;font-weight:650}.percent{font-size:20px;font-weight:900}.fact{font-size:23px;text-anchor:middle}.map{fill:#192226}.landmark{fill:none;stroke:#182123;stroke-width:5;stroke-linejoin:round}.panel{fill:#fffdfa;fill-opacity:.87;stroke:#ded8cd;stroke-width:2}.port circle{fill:#edf8ff;stroke:#1877b9;stroke-width:3}.port path{fill:none;stroke:#1877b9;stroke-width:3;stroke-linecap:round}.port.river circle{fill:#1678b9}.port.river path{stroke:#fff}.capital{fill:#e3272d;stroke:#fff;stroke-width:4}
</style>
<defs><filter id="shadow"><feDropShadow dx="0" dy="5" stdDeviation="9" flood-opacity=".2"/></filter></defs>
<rect width="1024" height="1280" rx="38" fill="#f8f4ec"/>
<g><path d="M0 190Q280 80 560 170T1024 145V370Q760 410 520 315T0 350Z" fill="#ba2626" opacity=".055"/></g>
<rect x="15" y="15" width="994" height="1250" rx="34" fill="none" stroke="#fff" stroke-width="5" filter="url(#shadow)"/>
<rect x="875" y="35" width="92" height="62" rx="12" fill="#fff" stroke="#ddd"/><text x="921" y="79" text-anchor="middle" font-size="42">🇰🇬</text>
<text x="512" y="260" text-anchor="middle" class="title" style="font-size:118px">BISHKEK</text>
<text x="512" y="315" text-anchor="middle" class="country">Киргизия</text>
<g class="landmark" transform="translate(35 360) scale(1.8)"><path d="M42 107h216M72 107V94h156v13M92 94V82h116v12M113 82l22-60h30l22 60M150 22V4m-8 8h16M132 82h36M143 56h14"/></g>
  <g transform="translate(660 325) scale(2.7)"><path class="map" fill-rule="evenodd" d="M91.6 42.7L92 43.5L88.8 44.1L88.1 45L85.6 45.8L84.1 46.1L81.8 46.9L79.7 47.8L77.7 48.8L77.5 49.7L76.4 50.7L74.8 51.3L72 51.7L69.7 51.6L67.3 51.4L65.4 52.1L65.3 53L64.3 54.7L63 56.2L61.7 56L60.3 56.4L59 57L57.7 57L56.8 56.4L56.8 55.7L56 54.5L53.7 55.8L53 55.8L51 55.5L50.6 55.7L50.9 56.6L49.3 57.1L46.9 58.6L45.4 58.6L44 59.2L43.5 60L43 60.8L43.4 61.4L43.6 62.6L43 63.4L39.3 63.7L37.8 64.3L36.7 64.3L34.1 63.9L33.4 64.2L32.5 64.3L31.4 64.6L30.7 65.3L30.3 64.9L29.6 64.2L27.9 64.8L26.9 64.5L27.2 63.7L25.4 63.5L25.4 62.5L24.4 62.4L23.7 62.8L22.2 63L21.1 63.9L20.4 63.9L19.3 63.9L19.1 63.3L18.6 62.7L17.6 62.4L16.9 62.5L16.4 62.6L15.5 62.4L14.9 62.8L13.9 62.7L12.3 62.8L10.3 62.8L9.3 62.9L8.9 62.9L8.3 61.6L8.5 59.8L9 59.6L9.9 59.5L10.1 58.6L10.4 58.5L15.2 58.3L16.2 58.7L17.9 59.1L17.4 59.7L17.7 59.9L18.6 59.5L19.4 58.4L20 58.1L20.7 58.1L21.9 57.2L23.4 56.9L24.1 57.1L25.1 57.7L26.1 57.6L26.6 58.1L27.5 57.9L28.8 57.5L29.3 57.4L28.7 57L29.9 56.1L31.1 55.9L30.7 56.1L31.9 56.4L32.3 55.7L31.9 55.3L31.8 54.7L33.6 55.5L34.2 54.9L35.4 54.1L37.8 53L36.9 52.8L35.7 52.8L33.3 52L32.8 51.7L31.8 51.2L31 51.6L30.5 50.9L29.8 50.3L28.3 50.3L27.2 48.3L26.9 48.5L26.6 48.5L26.5 47.5L26.1 48.1L25.8 49.4L24.7 50.5L23.6 50.9L22.9 50.3L22.6 50.6L21.3 50.2L20.3 49.9L19.7 49.7L19 48.1L17.2 48.5L16.5 48L16.4 46.8L18.1 45.4L20.2 44.1L23 43L21.9 41.9L20.4 41.9L21 41.1L21.2 40.5L22 40.4L21.6 40.1L22.6 39.1L23.4 38.4L24.3 38.4L25.3 38.1L26.8 37.9L28.2 37.8L30.3 38.3L33.6 38.9L35.8 40L38.1 40.1L39.1 40.6L40.6 40.9L40 39.1L40.5 37.4L41.2 36.2L43.9 35L46 34.9L46.5 34.9L48.1 35.5L49.8 36.5L52.5 37.2L55.7 37.8L57.3 37.8L58.1 37L60.3 37L62.5 37.2L63.2 37.1L64.8 37.2L65.4 36.9L66.1 36.7L68.1 36.8L68.9 37.2L70.7 37.1L72 37.2L73.3 37.4L74.1 37.3L76.6 37.5L77.7 37.4L80 38L83.3 38.1L83.8 38.8L85.5 40.3L89.4 40.9L91.1 42.3L91.6 42.7ZM27.5 59.4L27.3 59.5L27 59.6L26.9 59.7L26.7 59.7L26.6 59.8L26.6 59.9L26.8 60L27 60L27.2 60.1L27.3 60.1L27.3 60L27.5 59.5L27.5 59.4ZM22.9 59L22.8 59L22.8 59L22.7 59L22.3 58.8L22.1 58.7L22 58.6L21.9 58.4L21.7 58.2L21.6 58.1L21.3 58.2L21.2 58.5L21.2 58.6L21.1 58.7L21.2 58.9L21.4 59.2L21.5 59.3L21.6 59.3L21.8 59.3L21.9 59.4L21.9 59.6L21.6 60L21.6 60.2L21.7 60.2L21.8 60.2L21.9 60.1L22 60.1L22.1 60.1L22.2 60.1L22.2 60.2L22.3 60.3L22.4 60.3L22.7 60.2L23 60.2L23.1 60.2L23.2 60.1L23.2 59.9L22.9 59.6L22.8 59.4L23 59.3L23.3 59.1L23.4 59L23.3 58.9L23.2 58.9L23 58.9L23 58.9L22.9 59L22.9 59ZM17.7 60.2L17.6 60.2L17.6 60.3L17.6 60.5L17.7 60.6L18 60.7L18.1 60.8L18.3 61.1L18.3 61.1L18.7 60.9L18.9 60.8L19.2 60.7L19.3 60.7L19.3 60.5L19.2 60.4L19.1 60.4L18.9 60.5L18.6 60.5L17.7 60.2Z"/></g>
<circle class="capital" cx="789.445" cy="421.375" r="10"/>

<rect class="panel" x="35" y="670" width="395" height="220" rx="24"/><rect class="panel" x="445" y="670" width="544" height="220" rx="24"/>
<rect class="panel" x="35" y="905" width="455" height="320" rx="24"/><rect class="panel" x="505" y="905" width="484" height="320" rx="24"/>

<rect x="62" y="705" width="105" height="105" rx="22" fill="#c82026"/><circle cx="114" cy="740" r="15" fill="#fff"/><path d="M82 790v-23c0-24 64-24 64 0v23M96 790v-21m36 21v-21" fill="none" stroke="#fff" stroke-width="10" stroke-linecap="round"/>
<text x="190" y="722" class="heading">НАСЕЛЕНИЕ</text><text x="190" y="800" class="value">1,0 млн</text><text x="192" y="842" class="small" fill="#6d7272">город</text>

<text x="470" y="713" class="heading">СТРУКТУРА ВВП</text><clipPath id="bar-470-742"><rect x="470" y="742" width="490" height="34" rx="17"/></clipPath><g clip-path="url(#bar-470-742)"><rect x="470" y="742" width="44.1" height="34" fill="#159447"/><rect x="514.1" y="742" width="151.9" height="34" fill="#1476bd"/><rect x="666" y="742" width="294" height="34" fill="#f3a600"/></g>
<circle cx="484" cy="805" r="8" fill="#159447"/><text x="502" y="811" class="legend">Сельское хозяйство</text><text x="930" y="811" text-anchor="end" class="percent" fill="#159447">9%</text><circle cx="484" cy="833" r="8" fill="#1476bd"/><text x="502" y="839" class="legend">Промышленность</text><text x="930" y="839" text-anchor="end" class="percent" fill="#1476bd">31%</text><circle cx="484" cy="861" r="8" fill="#f3a600"/><text x="502" y="867" class="legend">Услуги</text><text x="930" y="867" text-anchor="end" class="percent" fill="#f3a600">60%</text>

<text x="262" y="950" text-anchor="middle" class="heading">РЕЛИГИЯ</text><clipPath id="bar-62-972"><rect x="62" y="972" width="400" height="22" rx="11"/></clipPath><g clip-path="url(#bar-62-972)"><rect x="62" y="972" width="357.6" height="22" fill="#138447"/><rect x="419.6" y="972" width="40" height="22" fill="#7b2da3"/><rect x="459.6" y="972" width="4" height="22" fill="#d39724"/><rect x="463.6" y="972" width="0" height="22" fill="#ef9d00"/></g>
<circle cx="80" cy="1025" r="17" fill="#138447"/><text x="80" y="1033" text-anchor="middle" font-size="21" fill="#fff">☾</text><text x="110" y="1032" class="legend">Ислам</text><text x="450" y="1032" text-anchor="end" class="percent" fill="#138447">89.4%</text><circle cx="80" cy="1069" r="17" fill="#7b2da3"/><text x="80" y="1077" text-anchor="middle" font-size="21" fill="#fff">✝</text><text x="110" y="1076" class="legend">Христианство</text><text x="450" y="1076" text-anchor="end" class="percent" fill="#7b2da3">10%</text><circle cx="80" cy="1113" r="17" fill="#d39724"/><text x="80" y="1121" text-anchor="middle" font-size="21" fill="#fff">☸</text><text x="110" y="1120" class="legend">Буддизм</text><text x="450" y="1120" text-anchor="end" class="percent" fill="#d39724">1%</text><circle cx="80" cy="1157" r="17" fill="#ef9d00"/><text x="80" y="1165" text-anchor="middle" font-size="21" fill="#fff">☆</text><text x="110" y="1164" class="legend">Прочие</text><text x="450" y="1164" text-anchor="end" class="percent" fill="#ef9d00">0%</text>

<text x="747" y="950" text-anchor="middle" class="heading">ИНТЕРЕСНЫЙ ФАКТ</text><g transform="translate(627 974)" class="landmark" opacity=".9"><path d="M0 80h240M15 70q45-55 90 0 45-55 90 0 18-20 30 0M15 70V30m210 40V30M10 30h20m185 0h20M0 91q15-10 30 0t30 0 30 0 30 0 30 0 30 0 30 0 30 0"/></g>
<text x="747" y="1120" class="fact">Название Бишкека связано с деревянной</text><text x="747" y="1148" class="fact">мешалкой для приготовления кумыса.</text>
<g transform="translate(472 1230) scale(.28)" class="landmark"><path d="M42 107h216M72 107V94h156v13M92 94V82h116v12M113 82l22-60h30l22 60M150 22V4m-8 8h16M132 82h36M143 56h14"/></g>
</svg>