<?xml version="1.0" encoding="UTF-8"?>
<svg xmlns="http://www.w3.org/2000/svg" width="1024" height="1280" viewBox="0 0 1024 1280" role="img" aria-label="Карточка города YAMOUSSOUKRO">
<style>
text{font-family:Arial,'Segoe UI',sans-serif;fill:#12191b}.title{font-size:118px;font-weight:900;letter-spacing:-6px}.country{font-size:43px;font-weight:800;fill:#ba2626}.heading{font-size:25px;font-weight:900}.value{font-size:57px;font-weight:900;letter-spacing:-2px}.small{font-size:18px}.legend{font-size:17px;font-weight:650}.percent{font-size:20px;font-weight:900}.fact{font-size:23px;text-anchor:middle}.map{fill:#192226}.landmark{fill:none;stroke:#182123;stroke-width:5;stroke-linejoin:round}.panel{fill:#fffdfa;fill-opacity:.87;stroke:#ded8cd;stroke-width:2}.port circle{fill:#edf8ff;stroke:#1877b9;stroke-width:3}.port path{fill:none;stroke:#1877b9;stroke-width:3;stroke-linecap:round}.port.river circle{fill:#1678b9}.port.river path{stroke:#fff}.capital{fill:#e3272d;stroke:#fff;stroke-width:4}
</style>
<defs><filter id="shadow"><feDropShadow dx="0" dy="5" stdDeviation="9" flood-opacity=".2"/></filter></defs>
<rect width="1024" height="1280" rx="38" fill="#f8f4ec"/>
<g><path d="M0 190Q280 80 560 170T1024 145V370Q760 410 520 315T0 350Z" fill="#ba2626" opacity=".055"/></g>
<rect x="15" y="15" width="994" height="1250" rx="34" fill="none" stroke="#fff" stroke-width="5" filter="url(#shadow)"/>
<rect x="875" y="35" width="92" height="62" rx="12" fill="#fff" stroke="#ddd"/><text x="921" y="79" text-anchor="middle" font-size="42">🇨🇮</text>
<text x="512" y="260" text-anchor="middle" class="title" style="font-size:99px">YAMOUSSOUKRO</text>
<text x="512" y="315" text-anchor="middle" class="country">Кот-д’Ивуар</text>
<g class="landmark" transform="translate(35 360) scale(1.8)"><path d="M42 107h216M72 107V94h156v13M92 94V82h116v12M113 82l22-60h30l22 60M150 22V4m-8 8h16M132 82h36M143 56h14"/></g>
  <g transform="translate(660 325) scale(2.7)"><path class="map" fill-rule="evenodd" d="M16.6 13.9L18.6 13.4L19.6 12.3L20.3 10.9L21 10.2L22.8 10.3L23.8 10.5L24.4 11.5L26.3 12.7L30.3 14.1L30.6 11.6L34.1 11.4L35.1 10.3L34.5 9L34.8 7.2L36.8 8.4L38.1 7.7L39.6 6.5L40.9 7.2L40.8 8.1L40.6 9.1L41.4 9.4L41.3 11L40.9 11.9L41.3 13L44.5 12.2L48.4 10.1L51 10.7L51.8 11.7L52.9 11.9L53.7 11.7L56.1 12.1L56.4 13.3L56.8 13.9L57.1 14.7L57.7 15.2L58.2 16.4L58.9 17.7L60.1 18.1L60.3 19.1L61 19.6L61.7 19.9L62.1 20.5L63 20.1L64 19.8L64.5 20L66.1 21.6L67 21.5L67.6 19.8L69.6 18.6L71 18.6L73 17.6L75.5 16.9L76.4 17L80.4 17.7L81.4 18.3L82.7 18.4L84.9 19.9L88.5 24.5L89.7 24.4L89.4 25.9L88.6 27.9L88.8 29.4L90.4 30.9L90.5 32.8L91.3 41.3L90.4 41.9L88.6 44.4L87.9 45.7L87.2 46.7L85.6 54.2L83.9 56.6L82.3 61.2L82.9 67.7L84.9 73.6L86.9 76.1L88.9 79.7L88.3 81.5L88.2 82.8L86 83L83.3 82.9L82.8 81.4L83.5 79.9L82.5 80L81.7 80.9L81.3 81.5L81.4 81.7L81.1 82.4L75.9 82.4L75.3 81.6L73.8 82.1L72.2 81.1L72.9 81L74.5 81.4L75.1 80.7L74.3 79.7L75.1 80.9L73.8 80.8L73 80.5L72.6 80.5L71.5 80.7L71.4 81L69.6 80.7L68.3 80.9L67.4 80.7L66.4 80.9L65.6 80.8L65.2 81.1L63.6 81L62.5 81.4L61.8 81.3L62 81L61.5 81.1L60.5 82.4L61.8 81.9L63.2 82L63.8 82L65.4 81.7L66.8 81.5L70.6 80.9L62.9 82.4L58 82.9L57.6 82.1L55.6 81.9L54.3 81.9L53.3 82L53.3 82.2L53.1 82.3L52.2 82.9L53.1 82.8L54 82.5L55 82.4L56.4 82.5L54.2 83.2L49.1 84L42.1 86L35.6 88.5L30.3 90.7L26.4 92.2L22.8 93.7L22.4 92L22.1 87.6L21.9 86.3L22.4 85.2L23.2 83.6L24.2 80.9L24.4 81.3L24.9 80.1L24.1 78.8L24.5 77.7L24.5 76.2L23.6 73.7L22.7 73.2L21.9 72.6L20.6 72.4L19.3 70.9L19.1 70.1L18.4 69.4L17.7 67.4L15.7 67L13.8 67.1L12.2 66.4L11.3 66.2L10.9 65.9L10.2 64.5L8.9 64.4L8.6 63.8L10.2 62.4L12.1 59.1L12.5 57.6L12 54.9L11.5 53.5L10.5 49.1L13.8 49.4L14.3 48.3L15 46.6L15.4 44.2L16.8 43.4L16.2 42L14 41L13.2 38.1L14.4 36.9L16.2 36.9L17.5 37.5L18.6 37.1L20.8 37.6L20.6 34.9L19.1 33.3L17.2 31.3L19.4 29L18.6 27.6L18.4 24.2L15.8 24.5L14.3 21.8L14.5 17.7L14.1 17L14.8 15.6L16.6 13.9ZM83.6 83.4L83.6 83.6L83.6 83.6L83 83.4L81.6 83.3L81.4 83.2L81.5 83L81.7 82.8L82 82.6L82.4 82.7L82.5 82.8L82.5 82.8L82.5 82.9L82.6 83L82.7 83L83 83.1L83 83.1L83.1 83.1L83.2 83.2L83.4 83.4L83.6 83.4L83.6 83.4Z"/></g>
<circle class="capital" cx="801.9" cy="471.775" r="10"/>

<rect class="panel" x="35" y="670" width="395" height="220" rx="24"/><rect class="panel" x="445" y="670" width="544" height="220" rx="24"/>
<rect class="panel" x="35" y="905" width="455" height="320" rx="24"/><rect class="panel" x="505" y="905" width="484" height="320" rx="24"/>

<rect x="62" y="705" width="105" height="105" rx="22" fill="#c82026"/><circle cx="114" cy="740" r="15" fill="#fff"/><path d="M82 790v-23c0-24 64-24 64 0v23M96 790v-21m36 21v-21" fill="none" stroke="#fff" stroke-width="10" stroke-linecap="round"/>
<text x="190" y="722" class="heading">НАСЕЛЕНИЕ</text><text x="190" y="800" class="value">355,6 тыс.</text><text x="192" y="842" class="small" fill="#6d7272">город</text>

<text x="470" y="713" class="heading">СТРУКТУРА ВВП</text><clipPath id="bar-470-742"><rect x="470" y="742" width="490" height="34" rx="17"/></clipPath><g clip-path="url(#bar-470-742)"><rect x="470" y="742" width="88.2" height="34" fill="#159447"/><rect x="558.2" y="742" width="127.4" height="34" fill="#1476bd"/><rect x="685.6" y="742" width="274.4" height="34" fill="#f3a600"/></g>
<circle cx="484" cy="805" r="8" fill="#159447"/><text x="502" y="811" class="legend">Сельское хозяйство</text><text x="930" y="811" text-anchor="end" class="percent" fill="#159447">18%</text><circle cx="484" cy="833" r="8" fill="#1476bd"/><text x="502" y="839" class="legend">Промышленность</text><text x="930" y="839" text-anchor="end" class="percent" fill="#1476bd">26%</text><circle cx="484" cy="861" r="8" fill="#f3a600"/><text x="502" y="867" class="legend">Услуги</text><text x="930" y="867" text-anchor="end" class="percent" fill="#f3a600">56%</text>

<text x="262" y="950" text-anchor="middle" class="heading">РЕЛИГИЯ</text><clipPath id="bar-62-972"><rect x="62" y="972" width="400" height="22" rx="11"/></clipPath><g clip-path="url(#bar-62-972)"><rect x="62" y="972" width="124.4" height="22" fill="#7b2da3"/><rect x="186.4" y="972" width="99.6" height="22" fill="#138447"/><rect x="286" y="972" width="62.4" height="22" fill="#777c82"/><rect x="348.4" y="972" width="113.6" height="22" fill="#ef9d00"/></g>
<circle cx="80" cy="1025" r="17" fill="#7b2da3"/><text x="80" y="1033" text-anchor="middle" font-size="21" fill="#fff">✝</text><text x="110" y="1032" class="legend">Христианство</text><text x="450" y="1032" text-anchor="end" class="percent" fill="#7b2da3">31.1%</text><circle cx="80" cy="1069" r="17" fill="#138447"/><text x="80" y="1077" text-anchor="middle" font-size="21" fill="#fff">☾</text><text x="110" y="1076" class="legend">Ислам</text><text x="450" y="1076" text-anchor="end" class="percent" fill="#138447">24.9%</text><circle cx="80" cy="1113" r="17" fill="#777c82"/><text x="80" y="1121" text-anchor="middle" font-size="21" fill="#fff">○</text><text x="110" y="1120" class="legend">Без религии</text><text x="450" y="1120" text-anchor="end" class="percent" fill="#777c82">15.6%</text><circle cx="80" cy="1157" r="17" fill="#ef9d00"/><text x="80" y="1165" text-anchor="middle" font-size="21" fill="#fff">☆</text><text x="110" y="1164" class="legend">Прочие</text><text x="450" y="1164" text-anchor="end" class="percent" fill="#ef9d00">28.4%</text>

<text x="747" y="950" text-anchor="middle" class="heading">ИНТЕРЕСНЫЙ ФАКТ</text><g transform="translate(627 974)" class="landmark" opacity=".9"><path d="M0 80h240M15 70q45-55 90 0 45-55 90 0 18-20 30 0M15 70V30m210 40V30M10 30h20m185 0h20M0 91q15-10 30 0t30 0 30 0 30 0 30 0 30 0 30 0 30 0"/></g>
<text x="747" y="1120" class="fact">В Ямусукро находится одна из</text><text x="747" y="1148" class="fact">крупнейших христианских церквей мира.</text>
<g transform="translate(472 1230) scale(.28)" class="landmark"><path d="M42 107h216M72 107V94h156v13M92 94V82h116v12M113 82l22-60h30l22 60M150 22V4m-8 8h16M132 82h36M143 56h14"/></g>
</svg>