<?xml version="1.0" encoding="UTF-8"?>
<svg xmlns="http://www.w3.org/2000/svg" width="1024" height="1280" viewBox="0 0 1024 1280" role="img" aria-label="Карточка города БЕРЛИН">
<style>
text{font-family:Arial,'Segoe UI',sans-serif;fill:#12191b}.title{font-size:118px;font-weight:900;letter-spacing:-6px}.country{font-size:43px;font-weight:800;fill:#ba2626}.heading{font-size:25px;font-weight:900}.value{font-size:57px;font-weight:900;letter-spacing:-2px}.small{font-size:18px}.legend{font-size:17px;font-weight:650}.percent{font-size:20px;font-weight:900}.fact{font-size:23px;text-anchor:middle}.map{fill:#192226}.landmark{fill:none;stroke:#182123;stroke-width:5;stroke-linejoin:round}.panel{fill:#fffdfa;fill-opacity:.87;stroke:#ded8cd;stroke-width:2}.port circle{fill:#edf8ff;stroke:#1877b9;stroke-width:3}.port path{fill:none;stroke:#1877b9;stroke-width:3;stroke-linecap:round}.port.river circle{fill:#1678b9}.port.river path{stroke:#fff}.capital{fill:#e3272d;stroke:#fff;stroke-width:4}
</style>
<defs><filter id="shadow"><feDropShadow dx="0" dy="5" stdDeviation="9" flood-opacity=".2"/></filter></defs>
<rect width="1024" height="1280" rx="38" fill="#f8f4ec"/>
<g><path d="M0 80 Q300 10 560 105T1024 90V190Q760 235 520 145T0 190Z" fill="#111111" opacity=".065"/><path d="M0 195 Q300 115 560 210T1024 205V305Q760 335 520 255T0 305Z" fill="#dd0000" opacity=".065"/><path d="M0 310 Q300 220 560 315T1024 320V420Q760 435 520 365T0 420Z" fill="#ffce00" opacity=".065"/></g>
<rect x="15" y="15" width="994" height="1250" rx="34" fill="none" stroke="#fff" stroke-width="5" filter="url(#shadow)"/>
<clipPath id="flag"><rect x="875" y="35" width="92" height="62" rx="12"/></clipPath><g clip-path="url(#flag)"><rect x="875" y="35" width="92" height="21.166666666666668" fill="#111111"/><rect x="875" y="55.66666666666667" width="92" height="21.166666666666668" fill="#dd0000"/><rect x="875" y="76.33333333333334" width="92" height="21.166666666666668" fill="#ffce00"/></g><rect x="875" y="35" width="92" height="62" rx="12" fill="none" stroke="#ddd"/>
<text x="512" y="260" text-anchor="middle" class="title">БЕРЛИН</text>
<text x="512" y="315" text-anchor="middle" class="country">Германия</text>
<g class="landmark" transform="translate(35 360) scale(1.8)"><path d="M20 105h260M35 102V44h230v58M28 43h244l-14-20H42zM62 43v59m39-59v59m39-59v59m39-59v59m39-59v59M58 23l18-15h128l18 15"/><path d="M118 8c12-14 52-14 64 0"/></g>
<g transform="translate(660 325) scale(2.7)"><path class="map" d="M35 5 48 7 55 2 68 9 78 8 82 20 91 28 84 39 91 50 83 59 87 73 74 84 70 97 54 93 43 99 33 89 23 85 26 70 16 61 20 48 11 39 18 25 25 18Z"/></g>
<g transform="translate(773.7 386.5)" class="port sea"><circle r="15"/><path d="M0-10v18m-6-12h12M-11 3c2 8 20 8 22 0"/><path d="M-12 14q6-5 12 0t12 0M-11 19q5-4 11 0t11 0"/></g><g transform="translate(717.3 460.75)" class="port river"><circle r="15"/><path d="M0-10v18m-6-12h12M-11 3c2 8 20 8 22 0"/><path d="M-10 15q5-4 10 0t10 0"/></g><circle class="capital" cx="846.55" cy="415.75" r="10"/>

<rect class="panel" x="35" y="670" width="395" height="220" rx="24"/><rect class="panel" x="445" y="670" width="544" height="220" rx="24"/>
<rect class="panel" x="35" y="905" width="455" height="320" rx="24"/><rect class="panel" x="505" y="905" width="484" height="320" rx="24"/>

<rect x="62" y="705" width="105" height="105" rx="22" fill="#c82026"/><circle cx="114" cy="740" r="15" fill="#fff"/><path d="M82 790v-23c0-24 64-24 64 0v23M96 790v-21m36 21v-21" fill="none" stroke="#fff" stroke-width="10" stroke-linecap="round"/>
<text x="190" y="722" class="heading">НАСЕЛЕНИЕ</text><text x="190" y="800" class="value">3,7 млн</text><text x="192" y="842" class="small" fill="#6d7272">город</text>

<text x="470" y="713" class="heading">СТРУКТУРА ВВП</text><clipPath id="bar-470-742"><rect x="470" y="742" width="490" height="34" rx="17"/></clipPath><g clip-path="url(#bar-470-742)"><rect x="470" y="742" width="4.9" height="34" fill="#159447"/><rect x="474.9" y="742" width="147" height="34" fill="#1476bd"/><rect x="621.9" y="742" width="338.1" height="34" fill="#f3a600"/></g>
<circle cx="484" cy="805" r="8" fill="#159447"/><text x="502" y="811" class="legend">Сельское хозяйство</text><text x="930" y="811" text-anchor="end" class="percent" fill="#159447">1%</text><circle cx="484" cy="833" r="8" fill="#1476bd"/><text x="502" y="839" class="legend">Промышленность</text><text x="930" y="839" text-anchor="end" class="percent" fill="#1476bd">30%</text><circle cx="484" cy="861" r="8" fill="#f3a600"/><text x="502" y="867" class="legend">Услуги</text><text x="930" y="867" text-anchor="end" class="percent" fill="#f3a600">69%</text>

<text x="262" y="950" text-anchor="middle" class="heading">РЕЛИГИЯ</text><clipPath id="bar-62-972"><rect x="62" y="972" width="400" height="22" rx="11"/></clipPath><g clip-path="url(#bar-62-972)"><rect x="62" y="972" width="180" height="22" fill="#7b2da3"/><rect x="242" y="972" width="16" height="22" fill="#138447"/><rect x="258" y="972" width="188" height="22" fill="#777c82"/><rect x="446" y="972" width="16" height="22" fill="#ef9d00"/></g>
<circle cx="80" cy="1025" r="17" fill="#7b2da3"/><text x="80" y="1033" text-anchor="middle" font-size="21" fill="#fff">✝</text><text x="110" y="1032" class="legend">Христианство</text><text x="450" y="1032" text-anchor="end" class="percent" fill="#7b2da3">45%</text><circle cx="80" cy="1069" r="17" fill="#138447"/><text x="80" y="1077" text-anchor="middle" font-size="21" fill="#fff">☾</text><text x="110" y="1076" class="legend">Ислам</text><text x="450" y="1076" text-anchor="end" class="percent" fill="#138447">4%</text><circle cx="80" cy="1113" r="17" fill="#777c82"/><text x="80" y="1121" text-anchor="middle" font-size="21" fill="#fff">○</text><text x="110" y="1120" class="legend">Без религии</text><text x="450" y="1120" text-anchor="end" class="percent" fill="#777c82">47%</text><circle cx="80" cy="1157" r="17" fill="#ef9d00"/><text x="80" y="1165" text-anchor="middle" font-size="21" fill="#fff">☆</text><text x="110" y="1164" class="legend">Прочие</text><text x="450" y="1164" text-anchor="end" class="percent" fill="#ef9d00">4%</text>

<text x="747" y="950" text-anchor="middle" class="heading">ИНТЕРЕСНЫЙ ФАКТ</text><g transform="translate(627 974)" class="landmark" opacity=".9"><path d="M0 80h240M15 70q45-55 90 0 45-55 90 0 18-20 30 0M15 70V30m210 40V30M10 30h20m185 0h20M0 91q15-10 30 0t30 0 30 0 30 0 30 0 30 0 30 0 30 0"/></g>
<text x="747" y="1138" class="fact">В Берлине больше мостов,</text><text x="747" y="1168" class="fact">чем в Венеции.</text>
<g transform="translate(472 1230) scale(.28)" class="landmark"><path d="M20 105h260M35 102V44h230v58M28 43h244l-14-20H42zM62 43v59m39-59v59m39-59v59m39-59v59m39-59v59M58 23l18-15h128l18 15"/><path d="M118 8c12-14 52-14 64 0"/></g>
</svg>