<?xml version="1.0" encoding="UTF-8"?>
<svg xmlns="http://www.w3.org/2000/svg" width="1024" height="1280" viewBox="0 0 1024 1280" role="img" aria-label="Карточка города TIRANA">
<style>
text{font-family:Arial,'Segoe UI',sans-serif;fill:#12191b}.title{font-size:118px;font-weight:900;letter-spacing:-6px}.country{font-size:43px;font-weight:800;fill:#ba2626}.heading{font-size:25px;font-weight:900}.value{font-size:57px;font-weight:900;letter-spacing:-2px}.small{font-size:18px}.legend{font-size:17px;font-weight:650}.percent{font-size:20px;font-weight:900}.fact{font-size:23px;text-anchor:middle}.map{fill:#192226}.landmark{fill:none;stroke:#182123;stroke-width:5;stroke-linejoin:round}.panel{fill:#fffdfa;fill-opacity:.87;stroke:#ded8cd;stroke-width:2}.port circle{fill:#edf8ff;stroke:#1877b9;stroke-width:3}.port path{fill:none;stroke:#1877b9;stroke-width:3;stroke-linecap:round}.port.river circle{fill:#1678b9}.port.river path{stroke:#fff}.capital{fill:#e3272d;stroke:#fff;stroke-width:4}
</style>
<defs><filter id="shadow"><feDropShadow dx="0" dy="5" stdDeviation="9" flood-opacity=".2"/></filter></defs>
<rect width="1024" height="1280" rx="38" fill="#f8f4ec"/>
<g><path d="M0 190Q280 80 560 170T1024 145V370Q760 410 520 315T0 350Z" fill="#ba2626" opacity=".055"/></g>
<rect x="15" y="15" width="994" height="1250" rx="34" fill="none" stroke="#fff" stroke-width="5" filter="url(#shadow)"/>
<rect x="875" y="35" width="92" height="62" rx="12" fill="#fff" stroke="#ddd"/><text x="921" y="79" text-anchor="middle" font-size="42">🇦🇱</text>
<text x="512" y="260" text-anchor="middle" class="title" style="font-size:118px">TIRANA</text>
<text x="512" y="315" text-anchor="middle" class="country">Албания</text>
<g class="landmark" transform="translate(35 360) scale(1.8)"><path d="M42 107h216M72 107V94h156v13M92 94V82h116v12M113 82l22-60h30l22 60M150 22V4m-8 8h16M132 82h36M143 56h14"/></g>
  <g transform="translate(660 325) scale(2.7)"><path class="map" fill-rule="evenodd" d="M62 28.8L61.3 29.8L61.6 31.1L60.4 32.2L60.3 35L61.1 37.1L60.7 37.7L58.5 38.2L58.7 39.9L59.5 40.6L59.8 41.4L60.5 41.7L61.2 42.5L61 43.5L60 44.4L59.4 44.9L60.4 48.1L62.1 50.6L62.9 51.7L63.9 51.8L64.6 52.1L66 56.1L67.1 57.2L69.3 56.6L71.5 56.6L73.6 57.9L73.5 60.6L73.4 61.5L74.4 62.6L75.7 64.2L75.3 66.3L75.2 67.1L74.6 67.7L73.7 68.2L73.3 69L72.8 69.6L70.8 69.6L69.4 70.1L68.8 70.8L67.9 71.4L68 72.8L67.1 74.4L66.4 74.8L65.8 76L65.5 77.8L64.8 78.2L64.8 78.8L64.5 80.5L63.4 81.1L60.1 81.3L58.1 81.6L56.8 82.6L56 83.7L54.3 84L55.6 86.5L56.8 89.3L55.3 89.4L53.9 89.1L53.5 89.5L53.8 90L53.6 90.5L54 91.1L54.1 91.7L52.8 92.6L52.2 93.1L51.5 93.3L51.3 93.9L49.4 93.2L46 92.1L45.4 92.6L45.1 91.6L44.9 90.5L46 87.9L45 87.1L44.3 86.8L43.8 86.4L42.8 86.1L43.5 85.3L41.9 82.8L41.3 82L39.6 81.7L38.9 81.3L38.7 81.3L38.2 80.9L37.7 80.2L35.4 79.6L31.2 77.7L27.1 74.4L26.4 72.5L24.9 71.2L24.8 71L26.5 70.9L28.2 72.8L28.7 73.8L30.2 73.3L29.6 69.8L27.6 67.6L28 68.2L29 68.7L29.6 67.3L27.8 66.6L25.4 64.6L25.8 63.7L26.9 62.7L27.1 60L28.2 59.5L27.8 58.8L28.3 58.1L27.7 57.3L28.1 56.6L28.8 56.1L28.8 58L29.1 57.7L29.6 57.6L31.7 55.9L30.8 54.2L29.6 56.5L29.7 55.9L30.2 54.4L29.4 54L29.3 53.4L29.3 50.5L29.9 49.8L30 48.8L31.3 46.2L30.1 45.2L28.6 44.8L28.3 42.8L28.2 42.6L29.2 41.4L31.2 40.1L31.1 38.6L30 38.1L31.7 37.4L33.4 36.2L33.7 36.7L34 35.8L33.5 35.6L33.1 33.3L33.5 31.9L33.6 30.4L29.5 29.1L27 29.1L26.5 27.8L26.4 27.4L26.6 26.9L26.8 26.1L26.9 25.3L26.6 24.3L27.3 22.3L26.7 21.6L24.6 20.3L25.2 18.8L28 15L28.5 14.2L31 12.1L32.2 10.7L32.7 10L33.7 9.2L34.5 7.5L36.1 6.2L37.8 6.9L38.1 8.2L37.7 8.7L37.7 9.5L39.2 11.3L40.5 11.4L42.1 10.7L44.2 10.4L46.6 8.8L49.5 10.2L49.9 10.7L50.9 12.3L51.5 13.1L51.3 13.8L51.9 14.5L52.2 15.6L54.8 15.8L59.3 18.2L61.2 20.7L61.6 22.9L62.8 25.9L62.7 27.1L62 27.7L62.1 28.6L62 28.8Z"/></g>
<circle class="capital" cx="769.705" cy="437.35" r="10"/>

<rect class="panel" x="35" y="670" width="395" height="220" rx="24"/><rect class="panel" x="445" y="670" width="544" height="220" rx="24"/>
<rect class="panel" x="35" y="905" width="455" height="320" rx="24"/><rect class="panel" x="505" y="905" width="484" height="320" rx="24"/>

<rect x="62" y="705" width="105" height="105" rx="22" fill="#c82026"/><circle cx="114" cy="740" r="15" fill="#fff"/><path d="M82 790v-23c0-24 64-24 64 0v23M96 790v-21m36 21v-21" fill="none" stroke="#fff" stroke-width="10" stroke-linecap="round"/>
<text x="190" y="722" class="heading">НАСЕЛЕНИЕ</text><text x="190" y="800" class="value">418,5 тыс.</text><text x="192" y="842" class="small" fill="#6d7272">город</text>

<text x="470" y="713" class="heading">СТРУКТУРА ВВП</text><clipPath id="bar-470-742"><rect x="470" y="742" width="490" height="34" rx="17"/></clipPath><g clip-path="url(#bar-470-742)"><rect x="470" y="742" width="83.3" height="34" fill="#159447"/><rect x="553.3" y="742" width="122.5" height="34" fill="#1476bd"/><rect x="675.8" y="742" width="284.2" height="34" fill="#f3a600"/></g>
<circle cx="484" cy="805" r="8" fill="#159447"/><text x="502" y="811" class="legend">Сельское хозяйство</text><text x="930" y="811" text-anchor="end" class="percent" fill="#159447">17%</text><circle cx="484" cy="833" r="8" fill="#1476bd"/><text x="502" y="839" class="legend">Промышленность</text><text x="930" y="839" text-anchor="end" class="percent" fill="#1476bd">25%</text><circle cx="484" cy="861" r="8" fill="#f3a600"/><text x="502" y="867" class="legend">Услуги</text><text x="930" y="867" text-anchor="end" class="percent" fill="#f3a600">58%</text>

<text x="262" y="950" text-anchor="middle" class="heading">РЕЛИГИЯ</text><clipPath id="bar-62-972"><rect x="62" y="972" width="400" height="22" rx="11"/></clipPath><g clip-path="url(#bar-62-972)"><rect x="62" y="972" width="328.4" height="22" fill="#138447"/><rect x="390.4" y="972" width="66.8" height="22" fill="#7b2da3"/><rect x="457.2" y="972" width="4" height="22" fill="#d39724"/><rect x="461.2" y="972" width="0.8" height="22" fill="#ef9d00"/></g>
<circle cx="80" cy="1025" r="17" fill="#138447"/><text x="80" y="1033" text-anchor="middle" font-size="21" fill="#fff">☾</text><text x="110" y="1032" class="legend">Ислам</text><text x="450" y="1032" text-anchor="end" class="percent" fill="#138447">82.1%</text><circle cx="80" cy="1069" r="17" fill="#7b2da3"/><text x="80" y="1077" text-anchor="middle" font-size="21" fill="#fff">✝</text><text x="110" y="1076" class="legend">Христианство</text><text x="450" y="1076" text-anchor="end" class="percent" fill="#7b2da3">16.7%</text><circle cx="80" cy="1113" r="17" fill="#d39724"/><text x="80" y="1121" text-anchor="middle" font-size="21" fill="#fff">☸</text><text x="110" y="1120" class="legend">Буддизм</text><text x="450" y="1120" text-anchor="end" class="percent" fill="#d39724">1%</text><circle cx="80" cy="1157" r="17" fill="#ef9d00"/><text x="80" y="1165" text-anchor="middle" font-size="21" fill="#fff">☆</text><text x="110" y="1164" class="legend">Прочие</text><text x="450" y="1164" text-anchor="end" class="percent" fill="#ef9d00">0.2%</text>

<text x="747" y="950" text-anchor="middle" class="heading">ИНТЕРЕСНЫЙ ФАКТ</text><g transform="translate(627 974)" class="landmark" opacity=".9"><path d="M0 80h240M15 70q45-55 90 0 45-55 90 0 18-20 30 0M15 70V30m210 40V30M10 30h20m185 0h20M0 91q15-10 30 0t30 0 30 0 30 0 30 0 30 0 30 0 30 0"/></g>
<text x="747" y="1120" class="fact">Центральная площадь Тираны названа в</text><text x="747" y="1148" class="fact">честь национального героя</text><text x="747" y="1176" class="fact">Скандербега.</text>
<g transform="translate(472 1230) scale(.28)" class="landmark"><path d="M42 107h216M72 107V94h156v13M92 94V82h116v12M113 82l22-60h30l22 60M150 22V4m-8 8h16M132 82h36M143 56h14"/></g>
</svg>